<mxfile host="app.diagrams.net" agent="Mozilla/5.0 (Windows NT 10.0; Win64; x64) AppleWebKit/537.36 (KHTML, like Gecko) Chrome/128.0.0.0 Safari/537.36 Edg/128.0.0.0" version="24.7.10">
  <diagram name="Página-1" id="puWJomfDc_QJtRltnvx3">
    <mxGraphModel dx="1179" dy="667" grid="1" gridSize="10" guides="1" tooltips="1" connect="1" arrows="1" fold="1" page="1" pageScale="1" pageWidth="700" pageHeight="400" math="0" shadow="0">
      <root>
        <mxCell id="0" />
        <mxCell id="1" parent="0" />
        <mxCell id="ECvrXdlymMgYs1Sx19X_-45" value="" style="group" vertex="1" connectable="0" parent="1">
          <mxGeometry y="10" width="360" height="380" as="geometry" />
        </mxCell>
        <mxCell id="ECvrXdlymMgYs1Sx19X_-2" value="" style="rounded=1;arcSize=3;whiteSpace=wrap;html=1;align=center;" vertex="1" parent="ECvrXdlymMgYs1Sx19X_-45">
          <mxGeometry width="360" height="380" as="geometry" />
        </mxCell>
        <mxCell id="ECvrXdlymMgYs1Sx19X_-1" value="&lt;h1 style=&quot;margin-top: 0px;&quot;&gt;&lt;font style=&quot;font-size: 15px;&quot;&gt;1.&lt;/font&gt;&lt;span style=&quot;font-size: 10px; background-color: initial; font-weight: normal;&quot;&gt;&lt;font style=&quot;font-size: 10px;&quot;&gt;Elaborar um diagrama ER para uma seguradora:&lt;/font&gt;&lt;/span&gt;&lt;/h1&gt;&lt;p style=&quot;font-size: 10px;&quot;&gt;&lt;font style=&quot;font-size: 10px;&quot;&gt;&lt;b&gt; Entidades&lt;/b&gt;&lt;br&gt; Cliente, Apólice, Apartamento e Acidentes.&lt;/font&gt;&lt;/p&gt;&lt;p style=&quot;font-size: 10px;&quot;&gt;&lt;font style=&quot;font-size: 10px;&quot;&gt;&lt;b&gt; Requisitos&lt;/b&gt;&lt;br&gt; a) Um cliente pode ter várias apólices (no mínimo uma);&lt;br&gt; b) Cada apólice somente dá cobertura a um apartamento;&lt;br&gt; c) Um apartamento pode ter zero ou n registros de chamados.&lt;/font&gt;&lt;/p&gt;" style="text;html=1;whiteSpace=wrap;overflow=hidden;rounded=0;glass=0;align=center;" vertex="1" parent="ECvrXdlymMgYs1Sx19X_-45">
          <mxGeometry x="10" width="340" height="130" as="geometry" />
        </mxCell>
        <mxCell id="ECvrXdlymMgYs1Sx19X_-12" value="" style="edgeStyle=orthogonalEdgeStyle;rounded=0;orthogonalLoop=1;jettySize=auto;html=1;endArrow=none;endFill=0;" edge="1" parent="ECvrXdlymMgYs1Sx19X_-45" source="ECvrXdlymMgYs1Sx19X_-3" target="ECvrXdlymMgYs1Sx19X_-9">
          <mxGeometry relative="1" as="geometry" />
        </mxCell>
        <mxCell id="ECvrXdlymMgYs1Sx19X_-3" value="Cliente" style="rounded=1;arcSize=10;whiteSpace=wrap;html=1;align=center;" vertex="1" parent="ECvrXdlymMgYs1Sx19X_-45">
          <mxGeometry x="10" y="150" width="100" height="40" as="geometry" />
        </mxCell>
        <mxCell id="ECvrXdlymMgYs1Sx19X_-26" value="" style="edgeStyle=orthogonalEdgeStyle;rounded=0;orthogonalLoop=1;jettySize=auto;html=1;endArrow=none;endFill=0;" edge="1" parent="ECvrXdlymMgYs1Sx19X_-45" source="ECvrXdlymMgYs1Sx19X_-4" target="ECvrXdlymMgYs1Sx19X_-10">
          <mxGeometry relative="1" as="geometry" />
        </mxCell>
        <mxCell id="ECvrXdlymMgYs1Sx19X_-4" value="Apólice" style="rounded=1;arcSize=10;whiteSpace=wrap;html=1;align=center;" vertex="1" parent="ECvrXdlymMgYs1Sx19X_-45">
          <mxGeometry x="250" y="150" width="100" height="40" as="geometry" />
        </mxCell>
        <mxCell id="ECvrXdlymMgYs1Sx19X_-28" value="" style="edgeStyle=orthogonalEdgeStyle;rounded=0;orthogonalLoop=1;jettySize=auto;html=1;endArrow=none;endFill=0;" edge="1" parent="ECvrXdlymMgYs1Sx19X_-45" source="ECvrXdlymMgYs1Sx19X_-5" target="ECvrXdlymMgYs1Sx19X_-11">
          <mxGeometry relative="1" as="geometry" />
        </mxCell>
        <mxCell id="ECvrXdlymMgYs1Sx19X_-5" value="Apartamento" style="rounded=1;arcSize=10;whiteSpace=wrap;html=1;align=center;" vertex="1" parent="ECvrXdlymMgYs1Sx19X_-45">
          <mxGeometry x="130" y="210" width="100" height="40" as="geometry" />
        </mxCell>
        <mxCell id="ECvrXdlymMgYs1Sx19X_-6" value="Acidentes" style="rounded=1;arcSize=10;whiteSpace=wrap;html=1;align=center;" vertex="1" parent="ECvrXdlymMgYs1Sx19X_-45">
          <mxGeometry x="130" y="330" width="100" height="40" as="geometry" />
        </mxCell>
        <mxCell id="ECvrXdlymMgYs1Sx19X_-13" value="" style="edgeStyle=orthogonalEdgeStyle;rounded=0;orthogonalLoop=1;jettySize=auto;html=1;endArrow=none;endFill=0;" edge="1" parent="ECvrXdlymMgYs1Sx19X_-45" source="ECvrXdlymMgYs1Sx19X_-9" target="ECvrXdlymMgYs1Sx19X_-4">
          <mxGeometry relative="1" as="geometry" />
        </mxCell>
        <mxCell id="ECvrXdlymMgYs1Sx19X_-9" value="Tem" style="shape=rhombus;perimeter=rhombusPerimeter;whiteSpace=wrap;html=1;align=center;" vertex="1" parent="ECvrXdlymMgYs1Sx19X_-45">
          <mxGeometry x="130" y="150" width="100" height="40" as="geometry" />
        </mxCell>
        <mxCell id="ECvrXdlymMgYs1Sx19X_-27" value="" style="edgeStyle=orthogonalEdgeStyle;rounded=0;orthogonalLoop=1;jettySize=auto;html=1;endArrow=none;endFill=0;" edge="1" parent="ECvrXdlymMgYs1Sx19X_-45" source="ECvrXdlymMgYs1Sx19X_-10" target="ECvrXdlymMgYs1Sx19X_-5">
          <mxGeometry relative="1" as="geometry" />
        </mxCell>
        <mxCell id="ECvrXdlymMgYs1Sx19X_-10" value="Assegura" style="shape=rhombus;perimeter=rhombusPerimeter;whiteSpace=wrap;html=1;align=center;" vertex="1" parent="ECvrXdlymMgYs1Sx19X_-45">
          <mxGeometry x="250" y="210" width="100" height="40" as="geometry" />
        </mxCell>
        <mxCell id="ECvrXdlymMgYs1Sx19X_-29" value="" style="edgeStyle=orthogonalEdgeStyle;rounded=0;orthogonalLoop=1;jettySize=auto;html=1;endArrow=none;endFill=0;" edge="1" parent="ECvrXdlymMgYs1Sx19X_-45" source="ECvrXdlymMgYs1Sx19X_-11" target="ECvrXdlymMgYs1Sx19X_-6">
          <mxGeometry relative="1" as="geometry" />
        </mxCell>
        <mxCell id="ECvrXdlymMgYs1Sx19X_-11" value="Registra" style="shape=rhombus;perimeter=rhombusPerimeter;whiteSpace=wrap;html=1;align=center;" vertex="1" parent="ECvrXdlymMgYs1Sx19X_-45">
          <mxGeometry x="130" y="270" width="100" height="40" as="geometry" />
        </mxCell>
        <mxCell id="ECvrXdlymMgYs1Sx19X_-30" value="" style="endArrow=none;html=1;rounded=0;dashed=1;dashPattern=1 4;" edge="1" parent="ECvrXdlymMgYs1Sx19X_-45">
          <mxGeometry relative="1" as="geometry">
            <mxPoint x="10" y="140" as="sourcePoint" />
            <mxPoint x="350" y="140" as="targetPoint" />
            <Array as="points">
              <mxPoint x="140" y="140" />
            </Array>
          </mxGeometry>
        </mxCell>
        <mxCell id="ECvrXdlymMgYs1Sx19X_-36" value="&lt;font style=&quot;font-size: 8px;&quot;&gt;(1,1)&lt;/font&gt;" style="text;html=1;align=center;verticalAlign=middle;whiteSpace=wrap;rounded=0;" vertex="1" parent="ECvrXdlymMgYs1Sx19X_-45">
          <mxGeometry x="110" y="150" width="20" height="10" as="geometry" />
        </mxCell>
        <mxCell id="ECvrXdlymMgYs1Sx19X_-37" value="&lt;font style=&quot;font-size: 8px;&quot;&gt;(1,n)&lt;/font&gt;" style="text;html=1;align=center;verticalAlign=middle;whiteSpace=wrap;rounded=0;" vertex="1" parent="ECvrXdlymMgYs1Sx19X_-45">
          <mxGeometry x="230" y="150" width="20" height="10" as="geometry" />
        </mxCell>
        <mxCell id="ECvrXdlymMgYs1Sx19X_-38" value="&lt;font style=&quot;font-size: 8px;&quot;&gt;(1,1)&lt;/font&gt;" style="text;html=1;align=center;verticalAlign=middle;whiteSpace=wrap;rounded=0;" vertex="1" parent="ECvrXdlymMgYs1Sx19X_-45">
          <mxGeometry x="230" y="210" width="20" height="10" as="geometry" />
        </mxCell>
        <mxCell id="ECvrXdlymMgYs1Sx19X_-39" value="&lt;font style=&quot;font-size: 8px;&quot;&gt;(1,1)&lt;/font&gt;" style="text;html=1;align=center;verticalAlign=middle;whiteSpace=wrap;rounded=0;" vertex="1" parent="ECvrXdlymMgYs1Sx19X_-45">
          <mxGeometry x="280" y="190" width="20" height="10" as="geometry" />
        </mxCell>
        <mxCell id="ECvrXdlymMgYs1Sx19X_-40" value="&lt;font style=&quot;font-size: 8px;&quot;&gt;(1,1)&lt;/font&gt;" style="text;html=1;align=center;verticalAlign=middle;whiteSpace=wrap;rounded=0;" vertex="1" parent="ECvrXdlymMgYs1Sx19X_-45">
          <mxGeometry x="180" y="250" width="20" height="10" as="geometry" />
        </mxCell>
        <mxCell id="ECvrXdlymMgYs1Sx19X_-44" value="&lt;font style=&quot;font-size: 8px;&quot;&gt;(0,n)&lt;/font&gt;" style="text;html=1;align=center;verticalAlign=middle;whiteSpace=wrap;rounded=0;" vertex="1" parent="ECvrXdlymMgYs1Sx19X_-45">
          <mxGeometry x="180" y="310" width="20" height="20" as="geometry" />
        </mxCell>
        <mxCell id="ECvrXdlymMgYs1Sx19X_-48" value="" style="rounded=1;whiteSpace=wrap;html=1;arcSize=2;" vertex="1" parent="1">
          <mxGeometry x="370" y="10" width="580" height="550" as="geometry" />
        </mxCell>
        <mxCell id="ECvrXdlymMgYs1Sx19X_-49" value="&lt;h1 style=&quot;margin-top: 0px;&quot;&gt;&lt;font style=&quot;font-size: 15px;&quot;&gt;2.&lt;/font&gt;&lt;span style=&quot;font-size: 10px; background-color: initial; font-weight: normal;&quot;&gt;Elaborar um diagrama ER para uma Indústria.&lt;/span&gt;&lt;span style=&quot;font-size: 15px; background-color: initial; font-weight: normal;&quot;&gt;&amp;nbsp;&lt;/span&gt;&lt;/h1&gt;&lt;p&gt;&lt;/p&gt;&lt;div style=&quot;&quot;&gt;&lt;span style=&quot;font-size: 10px; background-color: initial;&quot;&gt;&lt;b&gt;Entidades&lt;/b&gt;&lt;/span&gt;&lt;/div&gt;&lt;font style=&quot;font-size: 10px;&quot;&gt;&lt;div style=&quot;&quot;&gt;&lt;span style=&quot;background-color: initial;&quot;&gt;Peças, Depósitos, Fornecedor, Projeto, Funcionário e Departamento.&lt;/span&gt;&lt;/div&gt;&lt;/font&gt;&lt;p&gt;&lt;/p&gt;&lt;p&gt;&lt;/p&gt;&lt;div style=&quot;&quot;&gt;&lt;span style=&quot;font-size: 10px; background-color: initial;&quot;&gt;&lt;b&gt;Requisitos&lt;/b&gt;&lt;/span&gt;&lt;/div&gt;&lt;font style=&quot;font-size: 10px;&quot;&gt;&lt;div style=&quot;&quot;&gt;&lt;span style=&quot;background-color: initial;&quot;&gt;a) Cada Funcionário pode estar alocado a somente um Departamento;&lt;/span&gt;&lt;/div&gt;&lt;div style=&quot;&quot;&gt;&lt;span style=&quot;background-color: initial;&quot;&gt;b) Cada Funcionário pode pertencer a mais de um Projeto;&lt;/span&gt;&lt;/div&gt;&lt;div style=&quot;&quot;&gt;&lt;span style=&quot;background-color: initial;&quot;&gt;c) Um projeto pode utilizar-se de vários Fornecedores e de várias Peças;&lt;/span&gt;&lt;/div&gt;&lt;div style=&quot;&quot;&gt;&lt;span style=&quot;background-color: initial;&quot;&gt;d) Uma Peça pode ser fornecida por vários Fornecedores e atender a vários Projetos;&lt;/span&gt;&lt;/div&gt;&lt;div style=&quot;&quot;&gt;&lt;span style=&quot;background-color: initial;&quot;&gt;e) Um Fornecedor pode atender a vários Projetos e fornecer várias Peças;&lt;/span&gt;&lt;/div&gt;&lt;div style=&quot;&quot;&gt;&lt;span style=&quot;background-color: initial;&quot;&gt;f) Um Depósito pode conter várias Peças;&lt;/span&gt;&lt;/div&gt;&lt;div style=&quot;&quot;&gt;&lt;span style=&quot;background-color: initial;&quot;&gt;g) Deseja-se ter um controle do material utilizado por cada Projeto, identificando inclusive o seu&lt;/span&gt;&lt;/div&gt;&lt;div style=&quot;&quot;&gt;&lt;span style=&quot;background-color: initial;&quot;&gt;Fornecedor. Gravar as informações de data de Início e Horas Trabalhadas no Projeto.&lt;/span&gt;&lt;/div&gt;&lt;/font&gt;&lt;p&gt;&lt;/p&gt;" style="text;html=1;whiteSpace=wrap;overflow=hidden;rounded=0;" vertex="1" parent="1">
          <mxGeometry x="380" y="10" width="430" height="210" as="geometry" />
        </mxCell>
        <mxCell id="ECvrXdlymMgYs1Sx19X_-50" value="Peças" style="rounded=1;arcSize=10;whiteSpace=wrap;html=1;align=center;" vertex="1" parent="1">
          <mxGeometry x="380" y="240" width="100" height="40" as="geometry" />
        </mxCell>
        <mxCell id="ECvrXdlymMgYs1Sx19X_-52" value="" style="endArrow=none;html=1;rounded=0;dashed=1;dashPattern=1 4;" edge="1" parent="1">
          <mxGeometry relative="1" as="geometry">
            <mxPoint x="380" y="220" as="sourcePoint" />
            <mxPoint x="720" y="220" as="targetPoint" />
            <Array as="points">
              <mxPoint x="510" y="220" />
            </Array>
          </mxGeometry>
        </mxCell>
        <mxCell id="ECvrXdlymMgYs1Sx19X_-53" value="Depósitos" style="rounded=1;arcSize=10;whiteSpace=wrap;html=1;align=center;" vertex="1" parent="1">
          <mxGeometry x="500" y="240" width="100" height="40" as="geometry" />
        </mxCell>
        <mxCell id="ECvrXdlymMgYs1Sx19X_-54" value="Fornecedor" style="rounded=1;arcSize=10;whiteSpace=wrap;html=1;align=center;" vertex="1" parent="1">
          <mxGeometry x="620" y="240" width="100" height="40" as="geometry" />
        </mxCell>
        <mxCell id="ECvrXdlymMgYs1Sx19X_-55" value="Projeto" style="rounded=1;arcSize=10;whiteSpace=wrap;html=1;align=center;" vertex="1" parent="1">
          <mxGeometry x="380" y="290" width="100" height="40" as="geometry" />
        </mxCell>
        <mxCell id="ECvrXdlymMgYs1Sx19X_-56" value="Funcinário" style="rounded=1;arcSize=10;whiteSpace=wrap;html=1;align=center;" vertex="1" parent="1">
          <mxGeometry x="500" y="290" width="100" height="40" as="geometry" />
        </mxCell>
        <mxCell id="ECvrXdlymMgYs1Sx19X_-57" value="Departamento" style="rounded=1;arcSize=10;whiteSpace=wrap;html=1;align=center;" vertex="1" parent="1">
          <mxGeometry x="620" y="290" width="100" height="40" as="geometry" />
        </mxCell>
      </root>
    </mxGraphModel>
  </diagram>
</mxfile>
